<svg width="50" height="50" viewBox="0 0 50 50" fill="none" xmlns="http://www.w3.org/2000/svg">
<circle cx="25" cy="25" r="24" stroke="black" stroke-width="2"/>
<path d="M22.7812 26.4648H15.6211V34H13.3711V16.9375H23.9414V18.7891H15.6211V24.625H22.7812V26.4648ZM26.6367 34V16.9375H32.2148C34.0664 16.9375 35.457 17.3203 36.3867 18.0859C37.3242 18.8516 37.793 19.9844 37.793 21.4844C37.793 22.2812 37.5664 22.9883 37.1133 23.6055C36.6602 24.2148 36.043 24.6875 35.2617 25.0234C36.1836 25.2812 36.9102 25.7734 37.4414 26.5C37.9805 27.2188 38.25 28.0781 38.25 29.0781C38.25 30.6094 37.7539 31.8125 36.7617 32.6875C35.7695 33.5625 34.3672 34 32.5547 34H26.6367ZM28.8867 26.0195V32.1602H32.6016C33.6484 32.1602 34.4727 31.8906 35.0742 31.3516C35.6836 30.8047 35.9883 30.0547 35.9883 29.1016C35.9883 27.0469 34.8711 26.0195 32.6367 26.0195H28.8867ZM28.8867 24.2148H32.2852C33.2695 24.2148 34.0547 23.9688 34.6406 23.4766C35.2344 22.9844 35.5312 22.3164 35.5312 21.4727C35.5312 20.5352 35.2578 19.8555 34.7109 19.4336C34.1641 19.0039 33.332 18.7891 32.2148 18.7891H28.8867V24.2148Z" fill="black"/>
</svg>
