<svg width="50" height="50" viewBox="0 0 50 50" fill="none" xmlns="http://www.w3.org/2000/svg">
<circle cx="25" cy="25" r="24" stroke="black" stroke-width="2"/>
<path d="M18.5625 27.0977H14.5547V34H12.293V16.9375H17.9414C19.8633 16.9375 21.3398 17.375 22.3711 18.25C23.4102 19.125 23.9297 20.3984 23.9297 22.0703C23.9297 23.1328 23.6406 24.0586 23.0625 24.8477C22.4922 25.6367 21.6953 26.2266 20.6719 26.6172L24.6797 33.8594V34H22.2656L18.5625 27.0977ZM14.5547 25.2578H18.0117C19.1289 25.2578 20.0156 24.9688 20.6719 24.3906C21.3359 23.8125 21.668 23.0391 21.668 22.0703C21.668 21.0156 21.3516 20.207 20.7188 19.6445C20.0938 19.082 19.1875 18.7969 18 18.7891H14.5547V25.2578ZM39.1055 16.9375V28.5391C39.0977 30.1484 38.5898 31.4648 37.582 32.4883C36.582 33.5117 35.2227 34.0859 33.5039 34.2109L32.9062 34.2344C31.0391 34.2344 29.5508 33.7305 28.4414 32.7227C27.332 31.7148 26.7695 30.3281 26.7539 28.5625V16.9375H28.9805V28.4922C28.9805 29.7266 29.3203 30.6875 30 31.375C30.6797 32.0547 31.6484 32.3945 32.9062 32.3945C34.1797 32.3945 35.1523 32.0547 35.8242 31.375C36.5039 30.6953 36.8438 29.7383 36.8438 28.5039V16.9375H39.1055Z" fill="black"/>
</svg>
